<svg version="1.2" xmlns="http://www.w3.org/2000/svg" viewBox="0 0 30 30" width="30" height="30">
	<title>dice-svg</title>
	<style>
		.s0 { fill: #d2e5ea } 
		.s1 { fill: none;stroke: #000000;stroke-linejoin: round;stroke-width: 2 } 
		.s2 { fill: #f46036;stroke: #000000;stroke-linejoin: round;stroke-width: 2 } 
	</style>
	<path id="Layer" class="s0" d="m1 8.8c0-4.5 3.6-8.1 8-8.1h12c4.4 0.1 8 3.6 8 8.1v11.2c0 4.4-3.6 8-8 8h-12c-4.4 0-8-3.6-8-8z"/>
	<path id="Layer" class="s1" d="m1 9c0-4.4 3.6-8 8-8h12c4.4 0 8 3.6 8 8v12c0 4.4-3.6 8-8 8h-12c-4.4 0-8-3.6-8-8z"/>
	<g id="Dice 6">
		<path id="Layer" class="s2" d="m17.8 25c-1.1-1.1-1.1-2.9 0-3.9 1.1-1.1 2.8-1.1 3.9 0 1.1 1 1.1 2.8 0 3.9-1.1 1-2.8 1-3.9 0z"/>
		<path id="Layer copy 3" class="s2" d="m17.8 16.9c-1-1.1-1-2.8 0-3.9 1.1-1.1 2.8-1.1 3.9 0 1 1.1 1 2.8 0 3.9-1.1 1-2.8 1-3.9 0z"/>
		<path id="Layer" class="s2" d="m17.8 8.6c-1-1-1-2.7 0-3.8 1.1-1.1 2.8-1.1 3.9 0 1 1.1 1 2.8 0 3.8-1.1 1.1-2.8 1.1-3.9 0z"/>
		<path id="Layer copy 9" class="s2" d="m7.8 25c-1.1-1.1-1.1-2.9 0-3.9 1.1-1.1 2.8-1.1 3.9 0 1.1 1 1.1 2.8 0 3.9-1.1 1-2.8 1-3.9 0z"/>
		<path id="Layer copy 10" class="s2" d="m7.8 16.9c-1-1.1-1-2.8 0-3.9 1.1-1.1 2.8-1.1 3.9 0 1 1.1 1 2.8 0 3.9-1.1 1-2.8 1-3.9 0z"/>
		<path id="Layer copy 11" class="s2" d="m7.8 8.6c-1-1-1-2.7 0-3.8 1.1-1.1 2.8-1.1 3.9 0 1 1.1 1 2.8 0 3.8-1.1 1.1-2.8 1.1-3.9 0z"/>
	</g>
</svg>